<svg width="21" height="37" viewBox="0 0 21 37" fill="none" xmlns="http://www.w3.org/2000/svg">
<path d="M21 18.5C20.9794 17.77 20.712 17.1443 20.1567 16.5812L4.15475 0.709132C3.68168 0.250282 3.12635 0 2.4476 0C1.06954 0 0 1.08455 0 2.48196C0 3.14938 0.267385 3.77508 0.740451 4.25479L15.1381 18.5L0.740451 32.7452C0.267385 33.2249 0 33.8298 0 34.518C0 35.9154 1.06954 37 2.4476 37C3.10578 37 3.68168 36.7497 4.15475 36.2909L20.1567 20.398C20.7326 19.8557 21 19.23 21 18.5Z" fill="#444444"/>
</svg>
